<svg xmlns="http://www.w3.org/2000/svg" xmlns:xlink="http://www.w3.org/1999/xlink" width="2000" zoomAndPan="magnify" viewBox="0 0 1500 1499.999933" height="2000" preserveAspectRatio="xMidYMid meet" version="1.0"><defs><clipPath id="4dcdac87c3"><path d="M 579.992188 1037.246094 L 1350 1037.246094 L 1350 1349.996094 L 579.992188 1349.996094 Z M 579.992188 1037.246094 " clip-rule="nonzero"/></clipPath><clipPath id="2823eb176a"><path d="M 579.992188 1310.246094 L 579.992188 1076.984375 C 579.992188 1066.441406 584.183594 1056.332031 591.636719 1048.875 C 599.089844 1041.421875 609.199219 1037.234375 619.742188 1037.234375 L 1310.242188 1037.234375 C 1320.785156 1037.234375 1330.894531 1041.421875 1338.351562 1048.875 C 1345.804688 1056.332031 1349.992188 1066.441406 1349.992188 1076.984375 L 1349.992188 1310.246094 C 1349.992188 1320.789062 1345.804688 1330.898438 1338.351562 1338.351562 C 1330.894531 1345.808594 1320.785156 1349.996094 1310.242188 1349.996094 L 619.742188 1349.996094 C 609.199219 1349.996094 599.089844 1345.808594 591.636719 1338.351562 C 584.183594 1330.898438 579.992188 1320.789062 579.992188 1310.246094 Z M 579.992188 1310.246094 " clip-rule="nonzero"/></clipPath><clipPath id="7d15582001"><path d="M 579.992188 593.628906 L 1350 593.628906 L 1350 906.378906 L 579.992188 906.378906 Z M 579.992188 593.628906 " clip-rule="nonzero"/></clipPath><clipPath id="348287d315"><path d="M 579.992188 866.628906 L 579.992188 633.367188 C 579.992188 622.824219 584.183594 612.714844 591.636719 605.257812 C 599.089844 597.804688 609.199219 593.617188 619.742188 593.617188 L 1310.242188 593.617188 C 1320.785156 593.617188 1330.894531 597.804688 1338.351562 605.257812 C 1345.804688 612.714844 1349.992188 622.824219 1349.992188 633.367188 L 1349.992188 866.628906 C 1349.992188 877.171875 1345.804688 887.28125 1338.351562 894.734375 C 1330.894531 902.191406 1320.785156 906.378906 1310.242188 906.378906 L 619.742188 906.378906 C 609.199219 906.378906 599.089844 902.191406 591.636719 894.734375 C 584.183594 887.28125 579.992188 877.171875 579.992188 866.628906 Z M 579.992188 866.628906 " clip-rule="nonzero"/></clipPath><clipPath id="e4ef927d98"><path d="M 579.992188 150.011719 L 1350 150.011719 L 1350 462.761719 L 579.992188 462.761719 Z M 579.992188 150.011719 " clip-rule="nonzero"/></clipPath><clipPath id="e29b7a2716"><path d="M 579.992188 423.011719 L 579.992188 189.75 C 579.992188 179.207031 584.183594 169.097656 591.636719 161.640625 C 599.089844 154.1875 609.199219 150 619.742188 150 L 1310.242188 150 C 1320.785156 150 1330.894531 154.1875 1338.351562 161.640625 C 1345.804688 169.097656 1349.992188 179.207031 1349.992188 189.75 L 1349.992188 423.011719 C 1349.992188 433.554688 1345.804688 443.664062 1338.351562 451.117188 C 1330.894531 458.574219 1320.785156 462.761719 1310.242188 462.761719 L 619.742188 462.761719 C 609.199219 462.761719 599.089844 458.574219 591.636719 451.117188 C 584.183594 443.664062 579.992188 433.554688 579.992188 423.011719 Z M 579.992188 423.011719 " clip-rule="nonzero"/></clipPath><clipPath id="8c0fae35dd"><path d="M 150 1037.246094 L 462.75 1037.246094 L 462.75 1349.996094 L 150 1349.996094 Z M 150 1037.246094 " clip-rule="nonzero"/></clipPath><clipPath id="cb26c59ade"><path d="M 189.75 1037.246094 L 423.011719 1037.246094 C 433.554688 1037.246094 443.664062 1041.433594 451.121094 1048.886719 C 458.574219 1056.34375 462.761719 1066.453125 462.761719 1076.996094 L 462.761719 1310.246094 C 462.761719 1320.789062 458.574219 1330.898438 451.121094 1338.351562 C 443.664062 1345.808594 433.554688 1349.996094 423.011719 1349.996094 L 189.75 1349.996094 C 179.207031 1349.996094 169.097656 1345.808594 161.640625 1338.351562 C 154.1875 1330.898438 150 1320.789062 150 1310.246094 L 150 1076.996094 C 150 1066.453125 154.1875 1056.34375 161.640625 1048.886719 C 169.097656 1041.433594 179.207031 1037.246094 189.75 1037.246094 Z M 189.75 1037.246094 " clip-rule="nonzero"/></clipPath><clipPath id="a4f36f4784"><path d="M 150 593.617188 L 462.75 593.617188 L 462.75 906.367188 L 150 906.367188 Z M 150 593.617188 " clip-rule="nonzero"/></clipPath><clipPath id="2453fcc7a3"><path d="M 189.75 593.617188 L 423.011719 593.617188 C 433.554688 593.617188 443.664062 597.804688 451.121094 605.257812 C 458.574219 612.714844 462.761719 622.824219 462.761719 633.367188 L 462.761719 866.617188 C 462.761719 877.160156 458.574219 887.269531 451.121094 894.722656 C 443.664062 902.179688 433.554688 906.367188 423.011719 906.367188 L 189.75 906.367188 C 179.207031 906.367188 169.097656 902.179688 161.640625 894.722656 C 154.1875 887.269531 150 877.160156 150 866.617188 L 150 633.367188 C 150 622.824219 154.1875 612.714844 161.640625 605.257812 C 169.097656 597.804688 179.207031 593.617188 189.75 593.617188 Z M 189.75 593.617188 " clip-rule="nonzero"/></clipPath><clipPath id="66e5ff5db2"><path d="M 150 149.988281 L 462.75 149.988281 L 462.75 462.738281 L 150 462.738281 Z M 150 149.988281 " clip-rule="nonzero"/></clipPath><clipPath id="48724d2c35"><path d="M 189.75 149.988281 L 423.011719 149.988281 C 433.554688 149.988281 443.664062 154.175781 451.121094 161.628906 C 458.574219 169.085938 462.761719 179.195312 462.761719 189.738281 L 462.761719 422.988281 C 462.761719 433.53125 458.574219 443.640625 451.121094 451.097656 C 443.664062 458.550781 433.554688 462.738281 423.011719 462.738281 L 189.75 462.738281 C 179.207031 462.738281 169.097656 458.550781 161.640625 451.097656 C 154.1875 443.640625 150 433.53125 150 422.988281 L 150 189.738281 C 150 179.195312 154.1875 169.085938 161.640625 161.628906 C 169.097656 154.175781 179.207031 149.988281 189.75 149.988281 Z M 189.75 149.988281 " clip-rule="nonzero"/></clipPath></defs><g clip-path="url(#4dcdac87c3)"><g clip-path="url(#2823eb176a)"><path stroke-linecap="butt" transform="matrix(0, -0.75, 0.75, 0, 579.991327, 1349.995064)" fill="none" stroke-linejoin="miter" d="M 52.998631 0.00114681 L 364.014283 0.00114681 C 378.071576 0.00114681 391.550744 5.589689 401.493453 15.52719 C 411.430954 25.464691 417.014288 38.943858 417.014288 53.001151 L 417.014288 973.667897 C 417.014288 987.72519 411.430954 1001.204358 401.493453 1011.147067 C 391.550744 1021.084568 378.071576 1026.667902 364.014283 1026.667902 L 52.998631 1026.667902 C 38.941338 1026.667902 25.46217 1021.084568 15.52467 1011.147067 C 5.58196 1001.204358 -0.00137337 987.72519 -0.00137337 973.667897 L -0.00137337 53.001151 C -0.00137337 38.943858 5.58196 25.464691 15.52467 15.52719 C 25.46217 5.589689 38.941338 0.00114681 52.998631 0.00114681 Z M 52.998631 0.00114681 " stroke="#000000" stroke-width="200" stroke-opacity="1" stroke-miterlimit="4"/></g></g><g clip-path="url(#7d15582001)"><g clip-path="url(#348287d315)"><path stroke-linecap="butt" transform="matrix(0, -0.75, 0.75, 0, 579.991327, 906.377998)" fill="none" stroke-linejoin="miter" d="M 52.998793 0.00114681 L 364.014445 0.00114681 C 378.071738 0.00114681 391.550906 5.589689 401.493615 15.52719 C 411.431116 25.464691 417.01445 38.943858 417.01445 53.001151 L 417.01445 973.667897 C 417.01445 987.72519 411.431116 1001.204358 401.493615 1011.147067 C 391.550906 1021.084568 378.071738 1026.667902 364.014445 1026.667902 L 52.998793 1026.667902 C 38.941501 1026.667902 25.462333 1021.084568 15.524832 1011.147067 C 5.582123 1001.204358 -0.00121109 987.72519 -0.00121109 973.667897 L -0.00121109 53.001151 C -0.00121109 38.943858 5.582123 25.464691 15.524832 15.52719 C 25.462333 5.589689 38.941501 0.00114681 52.998793 0.00114681 Z M 52.998793 0.00114681 " stroke="#000000" stroke-width="200" stroke-opacity="1" stroke-miterlimit="4"/></g></g><g clip-path="url(#e4ef927d98)"><g clip-path="url(#e29b7a2716)"><path stroke-linecap="butt" transform="matrix(0, -0.75, 0.75, 0, 579.991327, 462.761076)" fill="none" stroke-linejoin="miter" d="M 52.999148 0.00114681 L 364.0148 0.00114681 C 378.072092 0.00114681 391.55126 5.589689 401.493969 15.52719 C 411.43147 25.464691 417.014804 38.943858 417.014804 53.001151 L 417.014804 973.667897 C 417.014804 987.72519 411.43147 1001.204358 401.493969 1011.147067 C 391.55126 1021.084568 378.072092 1026.667902 364.0148 1026.667902 L 52.999148 1026.667902 C 38.941855 1026.667902 25.462687 1021.084568 15.525186 1011.147067 C 5.582477 1001.204358 -0.000856812 987.72519 -0.000856812 973.667897 L -0.000856812 53.001151 C -0.000856812 38.943858 5.582477 25.464691 15.525186 15.52719 C 25.462687 5.589689 38.941855 0.00114681 52.999148 0.00114681 Z M 52.999148 0.00114681 " stroke="#000000" stroke-width="200" stroke-opacity="1" stroke-miterlimit="4"/></g></g><g clip-path="url(#8c0fae35dd)"><g clip-path="url(#cb26c59ade)"><path stroke-linecap="butt" transform="matrix(0.75, 0, 0, 0.75, 150.00002, 1037.245787)" fill="none" stroke-linejoin="miter" d="M 52.999977 0.000409455 L 364.015629 0.000409455 C 378.072922 0.000409455 391.55209 5.583743 401.494799 15.521244 C 411.4323 25.463953 417.015634 38.943121 417.015634 53.000414 L 417.015634 364.000441 C 417.015634 378.057734 411.4323 391.536902 401.494799 401.474402 C 391.55209 411.417112 378.072922 417.000445 364.015629 417.000445 L 52.999977 417.000445 C 38.942684 417.000445 25.463517 411.417112 15.520807 401.474402 C 5.583307 391.536902 -0.00002724 378.057734 -0.00002724 364.000441 L -0.00002724 53.000414 C -0.00002724 38.943121 5.583307 25.463953 15.520807 15.521244 C 25.463517 5.583743 38.942684 0.000409455 52.999977 0.000409455 Z M 52.999977 0.000409455 " stroke="#000000" stroke-width="200" stroke-opacity="1" stroke-miterlimit="4"/></g></g><g clip-path="url(#a4f36f4784)"><g clip-path="url(#2453fcc7a3)"><path stroke-linecap="butt" transform="matrix(0.75, 0, 0, 0.75, 150.00002, 593.616961)" fill="none" stroke-linejoin="miter" d="M 52.999977 0.000302174 L 364.015629 0.000302174 C 378.072922 0.000302174 391.55209 5.583636 401.494799 15.521137 C 411.4323 25.463846 417.015634 38.943014 417.015634 53.000307 L 417.015634 364.000334 C 417.015634 378.057626 411.4323 391.536794 401.494799 401.474295 C 391.55209 411.417004 378.072922 417.000338 364.015629 417.000338 L 52.999977 417.000338 C 38.942684 417.000338 25.463517 411.417004 15.520807 401.474295 C 5.583307 391.536794 -0.00002724 378.057626 -0.00002724 364.000334 L -0.00002724 53.000307 C -0.00002724 38.943014 5.583307 25.463846 15.520807 15.521137 C 25.463517 5.583636 38.942684 0.000302174 52.999977 0.000302174 Z M 52.999977 0.000302174 " stroke="#000000" stroke-width="200" stroke-opacity="1" stroke-miterlimit="4"/></g></g><g clip-path="url(#66e5ff5db2)"><g clip-path="url(#48724d2c35)"><path stroke-linecap="butt" transform="matrix(0.75, 0, 0, 0.75, 150.00002, 149.988219)" fill="none" stroke-linejoin="miter" d="M 52.999977 0.000082892 L 364.015629 0.000082892 C 378.072922 0.000082892 391.55209 5.583417 401.494799 15.520918 C 411.4323 25.463627 417.015634 38.942795 417.015634 53.000087 L 417.015634 364.000114 C 417.015634 378.057407 411.4323 391.536575 401.494799 401.479284 C 391.55209 411.416785 378.072922 417.000119 364.015629 417.000119 L 52.999977 417.000119 C 38.942684 417.000119 25.463517 411.416785 15.520807 401.479284 C 5.583307 391.536575 -0.00002724 378.057407 -0.00002724 364.000114 L -0.00002724 53.000087 C -0.00002724 38.942795 5.583307 25.463627 15.520807 15.520918 C 25.463517 5.583417 38.942684 0.000082892 52.999977 0.000082892 Z M 52.999977 0.000082892 " stroke="#000000" stroke-width="200" stroke-opacity="1" stroke-miterlimit="4"/></g></g></svg>