<svg xmlns="http://www.w3.org/2000/svg" xmlns:xlink="http://www.w3.org/1999/xlink" width="2000" zoomAndPan="magnify" viewBox="0 0 1500 1499.999933" height="2000" preserveAspectRatio="xMidYMid meet" version="1.0"><defs><clipPath id="b29b324d9e"><path d="M 150 417.359375 L 462.75 417.359375 L 462.75 1350 L 150 1350 Z M 150 417.359375 " clip-rule="nonzero"/></clipPath><clipPath id="f018553359"><path d="M 189.75 417.359375 L 423.011719 417.359375 C 433.554688 417.359375 443.664062 421.550781 451.121094 429.003906 C 458.574219 436.457031 462.761719 446.570312 462.761719 457.109375 L 462.761719 1310.242188 C 462.761719 1320.785156 458.574219 1330.894531 451.121094 1338.347656 C 443.664062 1345.804688 433.554688 1349.992188 423.011719 1349.992188 L 189.75 1349.992188 C 179.207031 1349.992188 169.097656 1345.804688 161.640625 1338.347656 C 154.1875 1330.894531 150 1320.785156 150 1310.242188 L 150 457.109375 C 150 446.570312 154.1875 436.457031 161.640625 429.003906 C 169.097656 421.550781 179.207031 417.359375 189.75 417.359375 Z M 189.75 417.359375 " clip-rule="nonzero"/></clipPath><clipPath id="7a5a952d63"><path d="M 593.617188 150 L 906.367188 150 L 906.367188 1350 L 593.617188 1350 Z M 593.617188 150 " clip-rule="nonzero"/></clipPath><clipPath id="682b1d879d"><path d="M 633.367188 150.007812 L 866.628906 150.007812 C 877.171875 150.007812 887.28125 154.195312 894.738281 161.648438 C 902.191406 169.105469 906.378906 179.214844 906.378906 189.757812 L 906.378906 1310.242188 C 906.378906 1320.785156 902.191406 1330.894531 894.738281 1338.347656 C 887.28125 1345.804688 877.171875 1349.992188 866.628906 1349.992188 L 633.367188 1349.992188 C 622.824219 1349.992188 612.714844 1345.804688 605.257812 1338.347656 C 597.804688 1330.894531 593.617188 1320.785156 593.617188 1310.242188 L 593.617188 189.757812 C 593.617188 179.214844 597.804688 169.105469 605.257812 161.648438 C 612.714844 154.195312 622.824219 150.007812 633.367188 150.007812 Z M 633.367188 150.007812 " clip-rule="nonzero"/></clipPath><clipPath id="f42c328a5d"><path d="M 1036.882812 670.871094 L 1349.632812 670.871094 L 1349.632812 1350 L 1036.882812 1350 Z M 1036.882812 670.871094 " clip-rule="nonzero"/></clipPath><clipPath id="5e5d0ee625"><path d="M 1076.632812 670.875 L 1309.894531 670.875 C 1320.4375 670.875 1330.546875 675.0625 1338.003906 682.519531 C 1345.457031 689.972656 1349.644531 700.082031 1349.644531 710.625 L 1349.644531 1310.246094 C 1349.644531 1320.785156 1345.457031 1330.898438 1338.003906 1338.351562 C 1330.546875 1345.804688 1320.4375 1349.992188 1309.894531 1349.992188 L 1076.632812 1349.992188 C 1066.089844 1349.992188 1055.980469 1345.804688 1048.523438 1338.351562 C 1041.070312 1330.898438 1036.882812 1320.785156 1036.882812 1310.246094 L 1036.882812 710.625 C 1036.882812 700.082031 1041.070312 689.972656 1048.523438 682.519531 C 1055.980469 675.0625 1066.089844 670.875 1076.632812 670.875 Z M 1076.632812 670.875 " clip-rule="nonzero"/></clipPath></defs><g clip-path="url(#b29b324d9e)"><g clip-path="url(#f018553359)"><path stroke-linecap="butt" transform="matrix(0.75, 0, 0, 0.75, 150.00002, 417.357688)" fill="none" stroke-linejoin="miter" d="M 52.999977 0.00224926 L 364.015629 0.00224926 C 378.072922 0.00224926 391.55209 5.590791 401.494799 15.528292 C 411.4323 25.465793 417.015634 38.950169 417.015634 53.002254 L 417.015634 1190.512768 C 417.015634 1204.570061 411.4323 1218.049229 401.494799 1227.98673 C 391.55209 1237.929439 378.072922 1243.512773 364.015629 1243.512773 L 52.999977 1243.512773 C 38.942684 1243.512773 25.463517 1237.929439 15.520807 1227.98673 C 5.583307 1218.049229 -0.00002724 1204.570061 -0.00002724 1190.512768 L -0.00002724 53.002254 C -0.00002724 38.950169 5.583307 25.465793 15.520807 15.528292 C 25.463517 5.590791 38.942684 0.00224926 52.999977 0.00224926 Z M 52.999977 0.00224926 " stroke="#000000" stroke-width="200" stroke-opacity="1" stroke-miterlimit="4"/></g></g><g clip-path="url(#7a5a952d63)"><g clip-path="url(#682b1d879d)"><path stroke-linecap="butt" transform="matrix(0.75, 0, 0, 0.75, 593.617014, 149.999967)" fill="none" stroke-linejoin="miter" d="M 53.000236 0.0104606 L 364.015887 0.0104606 C 378.07318 0.0104606 391.552348 5.593794 401.495057 15.531295 C 411.432558 25.474004 417.015892 38.953172 417.015892 53.010465 L 417.015892 1546.98976 C 417.015892 1561.047053 411.432558 1574.526221 401.495057 1584.463722 C 391.552348 1594.406431 378.07318 1599.989765 364.015887 1599.989765 L 53.000236 1599.989765 C 38.942943 1599.989765 25.463775 1594.406431 15.521066 1584.463722 C 5.583565 1574.526221 0.00023104 1561.047053 0.00023104 1546.98976 L 0.00023104 53.010465 C 0.00023104 38.953172 5.583565 25.474004 15.521066 15.531295 C 25.463775 5.593794 38.942943 0.0104606 53.000236 0.0104606 Z M 53.000236 0.0104606 " stroke="#000000" stroke-width="200" stroke-opacity="1" stroke-miterlimit="4"/></g></g><g clip-path="url(#f42c328a5d)"><g clip-path="url(#5e5d0ee625)"><path stroke-linecap="butt" transform="matrix(0.75, 0, 0, 0.75, 1036.882912, 670.872114)" fill="none" stroke-linejoin="miter" d="M 52.999872 0.00384771 L 364.015524 0.00384771 C 378.072817 0.00384771 391.551984 5.587182 401.494694 15.529891 C 411.432194 25.467392 417.015528 38.946559 417.015528 53.003852 L 417.015528 852.498713 C 417.015528 866.550797 411.432194 880.035174 401.494694 889.972674 C 391.551984 899.910175 378.072817 905.493509 364.015524 905.493509 L 52.999872 905.493509 C 38.942579 905.493509 25.463411 899.910175 15.520702 889.972674 C 5.583201 880.035174 -0.00013272 866.550797 -0.00013272 852.498713 L -0.00013272 53.003852 C -0.00013272 38.946559 5.583201 25.467392 15.520702 15.529891 C 25.463411 5.587182 38.942579 0.00384771 52.999872 0.00384771 Z M 52.999872 0.00384771 " stroke="#000000" stroke-width="200" stroke-opacity="1" stroke-miterlimit="4"/></g></g></svg>