<svg xmlns="http://www.w3.org/2000/svg" xmlns:xlink="http://www.w3.org/1999/xlink" width="2000" zoomAndPan="magnify" viewBox="0 0 1500 1499.999933" height="2000" preserveAspectRatio="xMidYMid meet" version="1.0"><defs><clipPath id="45b33d3c98"><path d="M 150 150 L 1350 150 L 1350 1350 L 150 1350 Z M 150 150 " clip-rule="nonzero"/></clipPath><clipPath id="ac6530eead"><path d="M 750 150 C 418.628906 150 150 418.628906 150 750 C 150 1081.371094 418.628906 1350 750 1350 C 1081.371094 1350 1350 1081.371094 1350 750 C 1350 418.628906 1081.371094 150 750 150 Z M 750 150 " clip-rule="nonzero"/></clipPath></defs><g clip-path="url(#45b33d3c98)"><g clip-path="url(#ac6530eead)"><path stroke-linecap="butt" transform="matrix(0.75, 0, 0, 0.75, 150.00002, 149.999967)" fill="none" stroke-linejoin="miter" d="M 800.000042 0.0000438933 C 358.171879 0.0000438933 -0.00002724 358.17195 -0.00002724 800.000113 C -0.00002724 1241.828276 358.171879 1600.000182 800.000042 1600.000182 C 1241.828205 1600.000182 1600.000111 1241.828276 1600.000111 800.000113 C 1600.000111 358.17195 1241.828205 0.0000438933 800.000042 0.0000438933 Z M 800.000042 0.0000438933 " stroke="#000000" stroke-width="200" stroke-opacity="1" stroke-miterlimit="4"/></g></g><path stroke-linecap="butt" transform="matrix(0.75, -0.000000000000000093, 0.000000000000000093, 0.75, 235.449755, 908.23303)" fill="none" stroke-linejoin="miter" d="M -0.00071456 50.001798 L 1372.129612 50.001798 " stroke="#000000" stroke-width="100" stroke-opacity="1" stroke-miterlimit="4"/><path stroke-linecap="butt" transform="matrix(0.75, -0.000000000000000093, 0.000000000000000093, 0.75, 235.449755, 511.113512)" fill="none" stroke-linejoin="miter" d="M -0.00071456 49.999697 L 1372.129612 49.999697 " stroke="#000000" stroke-width="100" stroke-opacity="1" stroke-miterlimit="4"/><path stroke-linecap="butt" transform="matrix(0.00311218, -0.749994, 0.749994, 0.00311218, 461.073714, 1321.490602)" fill="none" stroke-linejoin="miter" d="M 31.422146 346.930571 C 521.424157 -48.975937 1011.423169 -48.977973 1501.419225 346.934878 " stroke="#000000" stroke-width="100" stroke-opacity="1" stroke-miterlimit="4"/><path stroke-linecap="butt" transform="matrix(-0.00277367, -0.749995, 0.749995, -0.00277367, 749.161313, 1321.23337)" fill="none" stroke-linejoin="miter" d="M 29.495389 40.373445 C 519.492672 398.339102 1009.490878 398.338728 1499.490008 40.372321 " stroke="#000000" stroke-width="100" stroke-opacity="1" stroke-miterlimit="4"/></svg>