<svg xmlns="http://www.w3.org/2000/svg" xmlns:xlink="http://www.w3.org/1999/xlink" width="2000" zoomAndPan="magnify" viewBox="0 0 1500 1499.999933" height="2000" preserveAspectRatio="xMidYMid meet" version="1.0"><path stroke-linecap="round" transform="matrix(0.651706, 0.371186, -0.371186, 0.651706, 236.336101, 442.991894)" fill="none" stroke-linejoin="miter" d="M 44.501998 44.500581 L 779.14179 44.499488 " stroke="#000000" stroke-width="89" stroke-opacity="1" stroke-miterlimit="4"/><path stroke-linecap="round" transform="matrix(0, 0.75, -0.75, 0, 775.856679, 754.684259)" fill="none" stroke-linejoin="miter" d="M 44.499117 44.501617 L 816.6971 44.501617 " stroke="#000000" stroke-width="89" stroke-opacity="1" stroke-miterlimit="4"/><path stroke-linecap="round" transform="matrix(-0.648161, 0.377343, -0.377343, -0.648161, 1295.53257, 486.97861)" fill="none" stroke-linejoin="miter" d="M 44.498167 44.501112 L 802.430026 44.50098 " stroke="#000000" stroke-width="89" stroke-opacity="1" stroke-miterlimit="4"/><path stroke-linecap="round" transform="matrix(0, 0.75, -0.75, 0, 1298.716097, 440.727422)" fill="none" stroke-linejoin="miter" d="M 44.498858 44.501675 L 709.660373 44.501675 " stroke="#000000" stroke-width="89" stroke-opacity="1" stroke-miterlimit="4"/><path stroke-linecap="round" transform="matrix(0.000000001309, -0.75, 0.75, 0.000000001309, 186.440468, 1093.666302)" fill="none" stroke-linejoin="miter" d="M 44.497781 44.501255 L 814.727014 44.501254 " stroke="#000000" stroke-width="89" stroke-opacity="1" stroke-miterlimit="4"/><path stroke-linecap="round" transform="matrix(-0.648341, -0.377034, 0.377034, -0.648341, 751.381073, 1411.679162)" fill="none" stroke-linejoin="miter" d="M 44.498704 44.499565 L 843.399807 44.496981 " stroke="#000000" stroke-width="89" stroke-opacity="1" stroke-miterlimit="4"/><path stroke-linecap="round" transform="matrix(0.657184, 0.361398, -0.361398, 0.657184, 729.151027, 130.606301)" fill="none" stroke-linejoin="miter" d="M 44.499075 44.501068 L 840.13995 44.500494 " stroke="#000000" stroke-width="89" stroke-opacity="1" stroke-miterlimit="4"/><path stroke-linecap="round" transform="matrix(-0.649519, 0.375, -0.375, -0.649519, 786.095654, 188.754955)" fill="none" stroke-linejoin="miter" d="M 44.500891 44.500201 L 843.717031 44.498655 " stroke="#000000" stroke-width="89" stroke-opacity="1" stroke-miterlimit="4"/><path stroke-linecap="round" transform="matrix(-0.555613, 0.50378, -0.50378, -0.555613, 1167.062981, 1011.259813)" fill="none" stroke-linejoin="miter" d="M 49.503032 49.500512 L 396.687299 49.497222 " stroke="#000000" stroke-width="99" stroke-opacity="1" stroke-miterlimit="4"/><path stroke-linecap="round" transform="matrix(-0.59179, -0.460743, 0.460743, -0.59179, 1119.318345, 1400.584083)" fill="none" stroke-linejoin="miter" d="M 49.498863 49.499721 L 385.923315 49.49762 " stroke="#000000" stroke-width="99" stroke-opacity="1" stroke-miterlimit="4"/><path stroke-linecap="round" transform="matrix(-0.75, 0, 0, -0.75, 1391.257306, 1222.200115)" fill="none" stroke-linejoin="miter" d="M 49.499328 49.501199 L 613.233752 49.501199 " stroke="#000000" stroke-width="99" stroke-opacity="1" stroke-miterlimit="4"/></svg>