<svg xmlns="http://www.w3.org/2000/svg" xmlns:xlink="http://www.w3.org/1999/xlink" width="2000" zoomAndPan="magnify" viewBox="0 0 1500 1499.999933" height="2000" preserveAspectRatio="xMidYMid meet" version="1.0"><path fill="#ffffff" d="M 1273.242188 603.671875 C 1273.242188 603.671875 1211.992188 600.15625 1211.992188 600.15625 C 1204.140625 576.015625 1194.296875 552.226562 1182.03125 528.398438 L 1223.4375 483.359375 C 1252.578125 451.71875 1251.601562 403.085938 1221.171875 372.578125 L 1127.382812 278.789062 C 1097.03125 248.398438 1048.28125 247.460938 1016.679688 276.523438 L 970.585938 317.304688 C 947.851562 305.742188 924.0625 295.898438 898.789062 287.8125 L 896.328125 226.679688 C 894.53125 183.671875 859.414062 150 816.40625 150 C 816.40625 150 683.59375 150 683.59375 150 C 640.585938 150 605.46875 183.671875 603.671875 226.757812 C 603.671875 226.757812 600.15625 288.007812 600.15625 288.007812 C 575.9375 295.898438 552.148438 305.742188 528.398438 317.96875 C 528.398438 317.96875 483.359375 276.5625 483.359375 276.5625 C 451.71875 247.421875 403.085938 248.4375 372.578125 278.828125 L 278.789062 372.617188 C 248.398438 403.085938 247.421875 451.71875 276.523438 483.320312 L 317.304688 529.414062 C 305.703125 552.226562 295.859375 576.015625 287.8125 601.210938 L 226.679688 603.671875 C 183.671875 605.46875 150 640.585938 150 683.59375 L 150 816.40625 C 150 859.414062 183.671875 894.53125 226.757812 896.328125 L 288.007812 899.84375 C 295.898438 924.0625 305.742188 947.851562 317.96875 971.601562 L 276.5625 1016.640625 C 247.421875 1048.28125 248.398438 1096.914062 278.828125 1127.421875 L 372.617188 1221.210938 C 403.046875 1251.640625 451.796875 1252.578125 483.320312 1223.476562 L 529.414062 1182.695312 C 552.148438 1194.257812 575.9375 1204.101562 601.210938 1212.1875 L 603.671875 1273.320312 C 605.46875 1316.328125 640.585938 1350 683.59375 1350 C 683.59375 1350 816.40625 1350 816.40625 1350 C 859.414062 1350 894.53125 1316.328125 896.328125 1273.242188 C 896.328125 1273.242188 899.84375 1211.992188 899.84375 1211.992188 C 924.0625 1204.101562 947.851562 1194.257812 971.601562 1182.03125 L 1016.640625 1223.4375 C 1048.320312 1252.617188 1096.953125 1251.640625 1127.421875 1221.171875 L 1221.210938 1127.382812 C 1251.601562 1096.914062 1252.578125 1048.28125 1223.476562 1016.679688 L 1182.695312 970.585938 C 1194.292969 947.503906 1204.628906 923.457031 1212.1875 898.789062 C 1212.1875 898.789062 1273.320312 896.328125 1273.320312 896.328125 C 1316.328125 894.53125 1350 859.414062 1350 816.40625 L 1350 683.59375 C 1350 640.585938 1316.328125 605.46875 1273.242188 603.671875 Z M 1208.945312 818.867188 C 1144.378906 819.03125 1134.421875 888.25 1111.371094 934.378906 C 1095.742188 965.078125 1100.351562 1000.976562 1123.125 1025.742188 C 1123.125 1025.742188 1164.609375 1070.859375 1164.609375 1070.859375 L 1070.820312 1164.570312 L 1025.742188 1123.125 C 979.894531 1077.6875 923.902344 1119.710938 875.039062 1135.941406 C 842.304688 1146.640625 820.234375 1175.273438 818.867188 1208.984375 L 816.40625 1270 L 683.59375 1270.039062 L 681.132812 1208.945312 C 679.765625 1175.273438 657.695312 1146.640625 624.921875 1135.898438 C 575.984375 1119.824219 520.621094 1077.609375 474.257812 1123.128906 C 474.257812 1123.125 429.140625 1164.609375 429.140625 1164.609375 L 335.429688 1070.820312 L 376.875 1025.742188 C 422.316406 979.996094 380.285156 923.875 364.058594 875.039062 C 353.359375 842.304688 324.726562 820.234375 291.015625 818.867188 C 291.015625 818.867188 230 816.40625 230 816.40625 L 229.960938 683.59375 C 229.960938 683.59375 291.054688 681.132812 291.054688 681.132812 C 324.726562 679.765625 353.359375 657.695312 364.101562 624.921875 C 380.316406 576.21875 422.210938 519.84375 376.871094 474.257812 C 376.875 474.257812 335.390625 429.140625 335.390625 429.140625 C 335.390625 429.140625 429.179688 335.429688 429.179688 335.429688 L 474.257812 376.875 C 520.066406 422.328125 576.113281 380.277344 624.960938 364.058594 C 657.695312 353.359375 679.765625 324.726562 681.132812 291.015625 L 683.59375 230 L 816.40625 229.960938 L 818.867188 291.054688 C 820.234375 324.726562 842.304688 353.359375 875.078125 364.101562 C 923.832031 380.34375 980.066406 422.117188 1025.742188 376.871094 C 1025.742188 376.875 1070.859375 335.390625 1070.859375 335.390625 L 1164.570312 429.179688 L 1123.125 474.257812 C 1100.351562 499.023438 1095.742188 534.921875 1111.367188 565.585938 C 1134.375 611.773438 1144.496094 680.957031 1208.988281 681.128906 C 1208.984375 681.132812 1270 683.59375 1270 683.59375 L 1270.039062 816.40625 Z M 1208.945312 818.867188 " fill-opacity="1" fill-rule="nonzero"/><path fill="#ffffff" d="M 750 465.820312 C 593.320312 465.820312 465.820312 593.320312 465.820312 750 C 465.820312 906.679688 593.320312 1034.179688 750 1034.179688 C 906.679688 1034.179688 1034.179688 906.679688 1034.179688 750 C 1034.179688 593.320312 906.679688 465.820312 750 465.820312 Z M 750 954.179688 C 637.421875 954.179688 545.820312 862.578125 545.820312 750 C 545.820312 637.421875 637.421875 545.820312 750 545.820312 C 862.578125 545.820312 954.179688 637.421875 954.179688 750 C 954.179688 862.578125 862.578125 954.179688 750 954.179688 Z M 750 954.179688 " fill-opacity="1" fill-rule="nonzero"/></svg>