<svg xmlns="http://www.w3.org/2000/svg" xmlns:xlink="http://www.w3.org/1999/xlink" width="2000" zoomAndPan="magnify" viewBox="0 0 1500 1499.999933" height="2000" preserveAspectRatio="xMidYMid meet" version="1.0"><defs><clipPath id="e0c41a8899"><path d="M 586.113281 295.589844 L 931.617188 295.589844 L 931.617188 641.09375 L 586.113281 641.09375 Z M 586.113281 295.589844 " clip-rule="nonzero"/></clipPath><clipPath id="4be966b7a8"><path d="M 758.867188 295.589844 C 663.457031 295.589844 586.113281 372.933594 586.113281 468.34375 C 586.113281 563.75 663.457031 641.09375 758.867188 641.09375 C 854.273438 641.09375 931.617188 563.75 931.617188 468.34375 C 931.617188 372.933594 854.273438 295.589844 758.867188 295.589844 Z M 758.867188 295.589844 " clip-rule="nonzero"/></clipPath><clipPath id="c19f4242f1"><path d="M 240.601562 864.5625 L 586.105469 864.5625 L 586.105469 1210.066406 L 240.601562 1210.066406 Z M 240.601562 864.5625 " clip-rule="nonzero"/></clipPath><clipPath id="728ef27147"><path d="M 413.351562 864.5625 C 317.945312 864.5625 240.601562 941.90625 240.601562 1037.316406 C 240.601562 1132.722656 317.945312 1210.066406 413.351562 1210.066406 C 508.761719 1210.066406 586.105469 1132.722656 586.105469 1037.316406 C 586.105469 941.90625 508.761719 864.5625 413.351562 864.5625 Z M 413.351562 864.5625 " clip-rule="nonzero"/></clipPath><clipPath id="6d33f38d8e"><path d="M 913.886719 864.5625 L 1259.390625 864.5625 L 1259.390625 1210.066406 L 913.886719 1210.066406 Z M 913.886719 864.5625 " clip-rule="nonzero"/></clipPath><clipPath id="00c8891c38"><path d="M 1086.636719 864.5625 C 991.230469 864.5625 913.886719 941.90625 913.886719 1037.316406 C 913.886719 1132.722656 991.230469 1210.066406 1086.636719 1210.066406 C 1182.046875 1210.066406 1259.390625 1132.722656 1259.390625 1037.316406 C 1259.390625 941.90625 1182.046875 864.5625 1086.636719 864.5625 Z M 1086.636719 864.5625 " clip-rule="nonzero"/></clipPath></defs><g clip-path="url(#e0c41a8899)"><g clip-path="url(#4be966b7a8)"><path stroke-linecap="butt" transform="matrix(0.75, 0, 0, 0.75, 586.113391, 295.591361)" fill="none" stroke-linejoin="miter" d="M 230.338415 -0.00202292 C 103.124863 -0.00202292 -0.000146155 103.122986 -0.000146155 230.336539 C -0.000146155 357.544883 103.124863 460.669892 230.338415 460.669892 C 357.54676 460.669892 460.671769 357.544883 460.671769 230.336539 C 460.671769 103.122986 357.54676 -0.00202292 230.338415 -0.00202292 Z M 230.338415 -0.00202292 " stroke="#ffffff" stroke-width="200" stroke-opacity="1" stroke-miterlimit="4"/></g></g><g clip-path="url(#c19f4242f1)"><g clip-path="url(#728ef27147)"><path stroke-linecap="butt" transform="matrix(0.75, 0, 0, 0.75, 240.600305, 864.563042)" fill="none" stroke-linejoin="miter" d="M 230.335029 -0.000722043 C 103.126685 -0.000722043 0.0016761 103.124287 0.0016761 230.337839 C 0.0016761 357.546184 103.126685 460.671193 230.335029 460.671193 C 357.548582 460.671193 460.673591 357.546184 460.673591 230.337839 C 460.673591 103.124287 357.548582 -0.000722043 230.335029 -0.000722043 Z M 230.335029 -0.000722043 " stroke="#ffffff" stroke-width="200" stroke-opacity="1" stroke-miterlimit="4"/></g></g><g clip-path="url(#6d33f38d8e)"><g clip-path="url(#00c8891c38)"><path stroke-linecap="butt" transform="matrix(0.75, 0, 0, 0.75, 913.886547, 864.563042)" fill="none" stroke-linejoin="miter" d="M 230.333583 -0.000722043 C 103.125238 -0.000722043 0.000229488 103.124287 0.000229488 230.337839 C 0.000229488 357.546184 103.125238 460.671193 230.333583 460.671193 C 357.547135 460.671193 460.672144 357.546184 460.672144 230.337839 C 460.672144 103.124287 357.547135 -0.000722043 230.333583 -0.000722043 Z M 230.333583 -0.000722043 " stroke="#ffffff" stroke-width="200" stroke-opacity="1" stroke-miterlimit="4"/></g></g><path stroke-linecap="butt" transform="matrix(0.637788, 0.394622, -0.394622, 0.637788, 769.730295, 798.242071)" fill="none" stroke-linejoin="miter" d="M 0.00186829 50.000961 L 368.682302 49.999104 " stroke="#ffffff" stroke-width="100" stroke-opacity="1" stroke-miterlimit="4"/><path stroke-linecap="butt" transform="matrix(0.635149, -0.398856, 0.398856, 0.635149, 498.372998, 943.861531)" fill="none" stroke-linejoin="miter" d="M 0.0019367 49.998425 L 364.770687 50.001522 " stroke="#ffffff" stroke-width="100" stroke-opacity="1" stroke-miterlimit="4"/><path stroke-linecap="butt" transform="matrix(0, -0.75, 0.75, 0, 712.495868, 830.124868)" fill="none" stroke-linejoin="miter" d="M -0.000175335 50.000305 L 308.697768 50.000305 " stroke="#ffffff" stroke-width="100" stroke-opacity="1" stroke-miterlimit="4"/></svg>