<svg xmlns="http://www.w3.org/2000/svg" xmlns:xlink="http://www.w3.org/1999/xlink" width="2000" zoomAndPan="magnify" viewBox="0 0 1500 1499.999933" height="2000" preserveAspectRatio="xMidYMid meet" version="1.0"><defs><clipPath id="9019f9c0ca"><path d="M 275.25 437.246094 L 700.5 437.246094 L 700.5 935.996094 L 275.25 935.996094 Z M 275.25 437.246094 " clip-rule="nonzero"/></clipPath><clipPath id="9038500095"><path d="M 315 437.246094 L 660.421875 437.246094 C 670.964844 437.246094 681.074219 441.4375 688.53125 448.890625 C 695.984375 456.34375 700.171875 466.457031 700.171875 476.996094 L 700.171875 896.195312 C 700.171875 906.738281 695.984375 916.851562 688.53125 924.304688 C 681.074219 931.757812 670.964844 935.945312 660.421875 935.945312 L 315 935.945312 C 304.457031 935.945312 294.347656 931.757812 286.890625 924.304688 C 279.4375 916.851562 275.25 906.738281 275.25 896.195312 L 275.25 476.996094 C 275.25 466.457031 279.4375 456.34375 286.890625 448.890625 C 294.347656 441.4375 304.457031 437.246094 315 437.246094 Z M 315 437.246094 " clip-rule="nonzero"/></clipPath><clipPath id="4a4b527ea7"><path d="M 473 852 L 818 852 L 818 1249 L 473 1249 Z M 473 852 " clip-rule="nonzero"/></clipPath><clipPath id="277ea1f672"><path d="M 640.214844 838.253906 L 831.722656 949.054688 L 650.3125 1262.609375 L 458.804688 1151.808594 Z M 640.214844 838.253906 " clip-rule="nonzero"/></clipPath><clipPath id="c5fa5bc450"><path d="M 637.648438 828.652344 L 838.480469 944.84375 L 651.867188 1267.390625 L 451.035156 1151.199219 Z M 637.648438 828.652344 " clip-rule="nonzero"/></clipPath><clipPath id="d1b019b8b1"><path d="M 674.617188 858.164062 L 797.253906 929.117188 C 806.378906 934.398438 813.035156 943.085938 815.753906 953.269531 C 818.472656 963.453125 817.035156 974.304688 811.753906 983.425781 L 670.15625 1228.175781 C 664.875 1237.296875 656.1875 1243.953125 646.003906 1246.671875 C 635.816406 1249.390625 624.96875 1247.953125 615.84375 1242.671875 L 493.207031 1171.71875 C 484.082031 1166.441406 477.429688 1157.753906 474.710938 1147.570312 C 471.992188 1137.382812 473.429688 1126.535156 478.707031 1117.410156 L 620.308594 872.664062 C 625.585938 863.539062 634.273438 856.886719 644.460938 854.167969 C 654.644531 851.449219 665.492188 852.886719 674.617188 858.164062 Z M 674.617188 858.164062 " clip-rule="nonzero"/></clipPath></defs><g clip-path="url(#9019f9c0ca)"><g clip-path="url(#9038500095)"><path stroke-linecap="butt" transform="matrix(0.75, 0, 0, 0.75, 275.25001, 437.24579)" fill="none" stroke-linejoin="miter" d="M 52.999992 0.000404549 L 513.562531 0.000404549 C 527.619824 0.000404549 541.098992 5.588947 551.041701 15.526448 C 560.979202 25.463948 566.562536 38.948325 566.562536 53.000409 L 566.562536 611.932749 C 566.562536 625.990042 560.979202 639.474418 551.041701 649.411919 C 541.098992 659.34942 527.619824 664.932753 513.562531 664.932753 L 52.999992 664.932753 C 38.942699 664.932753 25.463531 659.34942 15.520822 649.411919 C 5.583321 639.474418 -0.0000128557 625.990042 -0.0000128557 611.932749 L -0.0000128557 53.000409 C -0.0000128557 38.948325 5.583321 25.463948 15.520822 15.526448 C 25.463531 5.588947 38.942699 0.000404549 52.999992 0.000404549 Z M 52.999992 0.000404549 " stroke="#000000" stroke-width="200" stroke-opacity="1" stroke-miterlimit="4"/></g></g><path stroke-linecap="butt" transform="matrix(-0.664335, -0.34808, 0.34808, -0.664335, 1161.640469, 1203.915572)" fill="none" stroke-linejoin="miter" d="M 0.00150835 49.998637 L 790.659165 49.997435 " stroke="#000000" stroke-width="100" stroke-opacity="1" stroke-miterlimit="4"/><path stroke-linecap="butt" transform="matrix(-0.653469, 0.368073, -0.368073, -0.653469, 1197.443954, 225.17895)" fill="none" stroke-linejoin="miter" d="M 0.000382237 50.002644 L 803.805438 50.002436 " stroke="#000000" stroke-width="100" stroke-opacity="1" stroke-miterlimit="4"/><path stroke-linecap="round" transform="matrix(0, -0.75, 0.75, 0, 1141.541191, 1207.998164)" fill="none" stroke-linejoin="miter" d="M 49.997556 50.002375 L 1353.732044 50.002375 " stroke="#000000" stroke-width="100" stroke-opacity="1" stroke-miterlimit="4"/><g clip-path="url(#4a4b527ea7)"><g clip-path="url(#277ea1f672)"><g clip-path="url(#c5fa5bc450)"><g clip-path="url(#d1b019b8b1)"><path stroke-linecap="butt" transform="matrix(0.649179, 0.375588, -0.375588, 0.649179, 640.215626, 838.255636)" fill="none" stroke-linejoin="miter" d="M 52.995818 0.00587511 L 241.906683 0.00649423 C 255.964168 0.00868504 269.446875 5.590432 279.384289 15.527933 C 289.321703 25.465435 294.908417 38.949017 294.903618 53.001994 L 294.909021 430.013575 C 294.904222 444.066552 289.322475 457.549258 279.384974 467.486673 C 269.442964 477.426695 255.963889 483.010801 241.906405 483.00861 L 52.99554 483.007991 C 38.940663 483.010308 25.462464 477.425954 15.52505 467.488452 C 5.585027 457.546442 0.000921738 444.067368 -0.00139564 430.012491 L 0.0003181 53.00281 C -0.00199928 38.947934 5.582355 25.469735 15.524365 15.529713 C 25.461867 5.592298 38.940941 0.00819249 52.995818 0.00587511 Z M 52.995818 0.00587511 " stroke="#000000" stroke-width="200" stroke-opacity="1" stroke-miterlimit="4"/></g></g></g></g></svg>