<svg xmlns="http://www.w3.org/2000/svg" xmlns:xlink="http://www.w3.org/1999/xlink" width="2000" zoomAndPan="magnify" viewBox="0 0 1500 1499.999933" height="2000" preserveAspectRatio="xMidYMid meet" version="1.0"><defs><clipPath id="5644ec892c"><path d="M 150 150 L 930 150 L 930 819 L 150 819 Z M 150 150 " clip-rule="nonzero"/></clipPath><clipPath id="a72a50c6f1"><path d="M 189.753906 150 L 890.105469 150 C 900.648438 150 910.757812 154.1875 918.214844 161.640625 C 925.667969 169.097656 929.855469 179.207031 929.855469 189.75 L 929.855469 779.191406 C 929.855469 789.734375 925.667969 799.84375 918.214844 807.300781 C 910.757812 814.753906 900.648438 818.941406 890.105469 818.941406 L 189.753906 818.941406 C 179.210938 818.941406 169.101562 814.753906 161.644531 807.300781 C 154.191406 799.84375 150.003906 789.734375 150.003906 779.191406 L 150.003906 189.75 C 150.003906 179.207031 154.191406 169.097656 161.644531 161.640625 C 169.101562 154.1875 179.210938 150 189.753906 150 Z M 189.753906 150 " clip-rule="nonzero"/></clipPath><clipPath id="3b57d41204"><path d="M 150 928.417969 L 1350 928.417969 L 1350 1349.917969 L 150 1349.917969 Z M 150 928.417969 " clip-rule="nonzero"/></clipPath><clipPath id="35d9462a7a"><path d="M 189.75 928.417969 L 1310.25 928.417969 C 1320.792969 928.417969 1330.902344 932.605469 1338.355469 940.058594 C 1345.8125 947.515625 1350 957.625 1350 968.167969 L 1350 1310.25 C 1350 1320.792969 1345.8125 1330.902344 1338.355469 1338.355469 C 1330.902344 1345.8125 1320.792969 1350 1310.25 1350 L 189.75 1350 C 179.207031 1350 169.097656 1345.8125 161.644531 1338.355469 C 154.1875 1330.902344 150 1320.792969 150 1310.25 L 150 968.167969 C 150 957.625 154.1875 947.515625 161.644531 940.058594 C 169.097656 932.605469 179.207031 928.417969 189.75 928.417969 Z M 189.75 928.417969 " clip-rule="nonzero"/></clipPath><clipPath id="7b6eb09668"><path d="M 1037.234375 150 L 1349.984375 150 L 1349.984375 819 L 1037.234375 819 Z M 1037.234375 150 " clip-rule="nonzero"/></clipPath><clipPath id="244288dfcd"><path d="M 1076.984375 150 L 1310.246094 150 C 1320.789062 150 1330.898438 154.1875 1338.351562 161.640625 C 1345.808594 169.097656 1349.996094 179.207031 1349.996094 189.75 L 1349.996094 779.191406 C 1349.996094 789.734375 1345.808594 799.84375 1338.351562 807.300781 C 1330.898438 814.753906 1320.789062 818.941406 1310.246094 818.941406 L 1076.984375 818.941406 C 1066.441406 818.941406 1056.332031 814.753906 1048.875 807.300781 C 1041.421875 799.84375 1037.234375 789.734375 1037.234375 779.191406 L 1037.234375 189.75 C 1037.234375 179.207031 1041.421875 169.097656 1048.875 161.640625 C 1056.332031 154.1875 1066.441406 150 1076.984375 150 Z M 1076.984375 150 " clip-rule="nonzero"/></clipPath></defs><g clip-path="url(#5644ec892c)"><g clip-path="url(#a72a50c6f1)"><path stroke-linecap="butt" transform="matrix(0.75, 0, 0, 0.75, 150.00002, 149.999967)" fill="none" stroke-linejoin="miter" d="M 53.005186 0.0000438933 L 986.807349 0.0000438933 C 1000.864642 0.0000438933 1014.34381 5.583378 1024.286519 15.520879 C 1034.22402 25.463588 1039.807354 38.942756 1039.807354 53.000048 L 1039.807354 838.921991 C 1039.807354 852.979284 1034.22402 866.458452 1024.286519 876.401161 C 1014.34381 886.338662 1000.864642 891.921996 986.807349 891.921996 L 53.005186 891.921996 C 38.947893 891.921996 25.468725 886.338662 15.526016 876.401161 C 5.588515 866.458452 0.00518109 852.979284 0.00518109 838.921991 L 0.00518109 53.000048 C 0.00518109 38.942756 5.588515 25.463588 15.526016 15.520879 C 25.468725 5.583378 38.947893 0.0000438933 53.005186 0.0000438933 Z M 53.005186 0.0000438933 " stroke="#000000" stroke-width="200" stroke-opacity="1" stroke-miterlimit="4"/></g></g><g clip-path="url(#3b57d41204)"><g clip-path="url(#35d9462a7a)"><path stroke-linecap="butt" transform="matrix(0.75, 0, 0, 0.75, 150.00002, 928.417508)" fill="none" stroke-linejoin="miter" d="M 52.999977 0.00061429 L 1547.000106 0.00061429 C 1561.057399 0.00061429 1574.536567 5.583948 1584.474068 15.521449 C 1594.416777 25.464158 1600.000111 38.943326 1600.000111 53.000619 L 1600.000111 509.110033 C 1600.000111 523.167326 1594.416777 536.646494 1584.474068 546.583995 C 1574.536567 556.526704 1561.057399 562.110038 1547.000106 562.110038 L 52.999977 562.110038 C 38.942684 562.110038 25.463517 556.526704 15.526016 546.583995 C 5.583307 536.646494 -0.00002724 523.167326 -0.00002724 509.110033 L -0.00002724 53.000619 C -0.00002724 38.943326 5.583307 25.464158 15.526016 15.521449 C 25.463517 5.583948 38.942684 0.00061429 52.999977 0.00061429 Z M 52.999977 0.00061429 " stroke="#000000" stroke-width="200" stroke-opacity="1" stroke-miterlimit="4"/></g></g><g clip-path="url(#7b6eb09668)"><g clip-path="url(#244288dfcd)"><path stroke-linecap="butt" transform="matrix(0.75, 0, 0, 0.75, 1037.234008, 149.999967)" fill="none" stroke-linejoin="miter" d="M 53.000494 0.0000438933 L 364.016146 0.0000438933 C 378.073439 0.0000438933 391.552606 5.583378 401.490107 15.520879 C 411.432816 25.463588 417.01615 38.942756 417.01615 53.000048 L 417.01615 838.921991 C 417.01615 852.979284 411.432816 866.458452 401.490107 876.401161 C 391.552606 886.338662 378.073439 891.921996 364.016146 891.921996 L 53.000494 891.921996 C 38.943201 891.921996 25.464033 886.338662 15.521324 876.401161 C 5.583823 866.458452 0.000489321 852.979284 0.000489321 838.921991 L 0.000489321 53.000048 C 0.000489321 38.942756 5.583823 25.463588 15.521324 15.520879 C 25.464033 5.583378 38.943201 0.0000438933 53.000494 0.0000438933 Z M 53.000494 0.0000438933 " stroke="#000000" stroke-width="200" stroke-opacity="1" stroke-miterlimit="4"/></g></g></svg>