<svg xmlns="http://www.w3.org/2000/svg" xmlns:xlink="http://www.w3.org/1999/xlink" width="2000" zoomAndPan="magnify" viewBox="0 0 1500 1499.999933" height="2000" preserveAspectRatio="xMidYMid meet" version="1.0"><defs><clipPath id="0a883d43b3"><path d="M 150 150 L 1350 150 L 1350 1350 L 150 1350 Z M 150 150 " clip-rule="nonzero"/></clipPath><clipPath id="2213799852"><path d="M 750 150 C 418.628906 150 150 418.628906 150 750 C 150 1081.371094 418.628906 1350 750 1350 C 1081.371094 1350 1350 1081.371094 1350 750 C 1350 418.628906 1081.371094 150 750 150 Z M 750 150 " clip-rule="nonzero"/></clipPath><clipPath id="c00f66f97d"><path d="M 432.773438 432.773438 L 1067.226562 432.773438 L 1067.226562 1067.222656 L 432.773438 1067.222656 Z M 432.773438 432.773438 " clip-rule="nonzero"/></clipPath><clipPath id="ec889f8d43"><path d="M 750 432.773438 C 574.800781 432.773438 432.773438 574.800781 432.773438 750 C 432.773438 925.199219 574.800781 1067.222656 750 1067.222656 C 925.199219 1067.222656 1067.226562 925.199219 1067.226562 750 C 1067.226562 574.800781 925.199219 432.773438 750 432.773438 Z M 750 432.773438 " clip-rule="nonzero"/></clipPath><clipPath id="26dc83b6ef"><path d="M 0.773438 0.773438 L 635.226562 0.773438 L 635.226562 635.222656 L 0.773438 635.222656 Z M 0.773438 0.773438 " clip-rule="nonzero"/></clipPath><clipPath id="9551bd29b1"><path d="M 318 0.773438 C 142.800781 0.773438 0.773438 142.800781 0.773438 318 C 0.773438 493.199219 142.800781 635.222656 318 635.222656 C 493.199219 635.222656 635.226562 493.199219 635.226562 318 C 635.226562 142.800781 493.199219 0.773438 318 0.773438 Z M 318 0.773438 " clip-rule="nonzero"/></clipPath><clipPath id="b3d007e457"><rect x="0" width="636" y="0" height="636"/></clipPath><clipPath id="c063ca594d"><path d="M 432.773438 432.773438 L 1067.214844 432.773438 L 1067.214844 1067.214844 L 432.773438 1067.214844 Z M 432.773438 432.773438 " clip-rule="nonzero"/></clipPath><clipPath id="c5c0a88970"><path d="M 749.996094 432.773438 C 574.800781 432.773438 432.773438 574.800781 432.773438 749.996094 C 432.773438 925.191406 574.800781 1067.214844 749.996094 1067.214844 C 925.191406 1067.214844 1067.214844 925.191406 1067.214844 749.996094 C 1067.214844 574.800781 925.191406 432.773438 749.996094 432.773438 Z M 749.996094 432.773438 " clip-rule="nonzero"/></clipPath></defs><g clip-path="url(#0a883d43b3)"><g clip-path="url(#2213799852)"><path stroke-linecap="butt" transform="matrix(0.75, 0, 0, 0.75, 150.00002, 149.999967)" fill="none" stroke-linejoin="miter" d="M 800.000042 0.0000438933 C 358.171879 0.0000438933 -0.00002724 358.17195 -0.00002724 800.000113 C -0.00002724 1241.828276 358.171879 1600.000182 800.000042 1600.000182 C 1241.828205 1600.000182 1600.000111 1241.828276 1600.000111 800.000113 C 1600.000111 358.17195 1241.828205 0.0000438933 800.000042 0.0000438933 Z M 800.000042 0.0000438933 " stroke="#ffffff" stroke-width="200" stroke-opacity="1" stroke-miterlimit="4"/></g></g><g clip-path="url(#c00f66f97d)"><g clip-path="url(#ec889f8d43)"><g transform="matrix(1, 0, 0, 1, 432, 432)"><g clip-path="url(#b3d007e457)"><g clip-path="url(#26dc83b6ef)"><g clip-path="url(#9551bd29b1)"><path fill="#ffffff" d="M 0.773438 0.773438 L 635.222656 0.773438 L 635.222656 635.222656 L 0.773438 635.222656 Z M 0.773438 0.773438 " fill-opacity="1" fill-rule="nonzero"/></g></g></g></g></g></g><g clip-path="url(#c063ca594d)"><g clip-path="url(#c5c0a88970)"><path stroke-linecap="butt" transform="matrix(0.75, 0, 0, 0.75, 432.775316, 432.775263)" fill="none" stroke-linejoin="miter" d="M 422.961073 -0.00243363 C 189.367303 -0.00243363 -0.00250477 189.367374 -0.00250477 422.961144 C -0.00250477 656.554915 189.367303 845.919514 422.961073 845.919514 C 656.554843 845.919514 845.919443 656.554915 845.919443 422.961144 C 845.919443 189.367374 656.554843 -0.00243363 422.961073 -0.00243363 Z M 422.961073 -0.00243363 " stroke="#ffffff" stroke-width="200" stroke-opacity="1" stroke-miterlimit="4"/></g></g></svg>