<svg xmlns="http://www.w3.org/2000/svg" xmlns:xlink="http://www.w3.org/1999/xlink" width="2000" zoomAndPan="magnify" viewBox="0 0 1500 1499.999933" height="2000" preserveAspectRatio="xMidYMid meet" version="1.0"><defs><clipPath id="1c992a8bc7"><path d="M 418.300781 670.492188 L 1082 670.492188 L 1082 1349.988281 L 418.300781 1349.988281 Z M 418.300781 670.492188 " clip-rule="nonzero"/></clipPath><clipPath id="99e2487904"><path d="M 639.550781 683.484375 C 673.449219 675.640625 712.226562 670.492188 750.171875 670.492188 C 788.125 670.492188 824.640625 674.90625 858.292969 682.75 C 859.007812 682.996094 859.722656 682.996094 860.441406 683.238281 C 986.816406 714.621094 1079.898438 797.488281 1081.6875 897.121094 L 1081.6875 1349.996094 L 418.300781 1349.996094 L 418.300781 897.457031 C 420.089844 797 511.742188 714.132812 639.550781 683.484375 Z M 639.550781 683.484375 " clip-rule="nonzero"/></clipPath><clipPath id="abb0684e1c"><path d="M 525 150 L 975 150 L 975 600 L 525 600 Z M 525 150 " clip-rule="nonzero"/></clipPath><clipPath id="8fc8071aed"><path d="M 750 150 C 625.734375 150 525 250.734375 525 375 C 525 499.265625 625.734375 600 750 600 C 874.265625 600 975 499.265625 975 375 C 975 250.734375 874.265625 150 750 150 Z M 750 150 " clip-rule="nonzero"/></clipPath></defs><g clip-path="url(#1c992a8bc7)"><g clip-path="url(#99e2487904)"><path stroke-linecap="butt" transform="matrix(0.75, 0, 0, 0.75, 418.301685, 670.486914)" fill="none" stroke-linejoin="miter" d="M 294.99882 17.329949 C 340.196741 6.871615 391.89987 0.007031 442.493624 0.007031 C 493.097795 0.007031 541.7853 5.892448 586.655095 16.350782 C 587.60822 16.678907 588.561345 16.678907 589.519679 17.001824 C 758.019693 58.845578 882.129079 169.335171 884.514496 302.178932 L 884.514496 906.012317 L -0.00120543 906.012317 L -0.00120543 302.626849 C 2.384211 168.684129 124.587347 58.194536 294.99882 17.329949 Z M 294.99882 17.329949 " stroke="#ffffff" stroke-width="200" stroke-opacity="1" stroke-miterlimit="4"/></g></g><g clip-path="url(#abb0684e1c)"><g clip-path="url(#8fc8071aed)"><path stroke-linecap="butt" transform="matrix(0.75, 0, 0, 0.75, 524.999988, 149.999967)" fill="none" stroke-linejoin="miter" d="M 300.000042 0.0000438933 C 134.312527 0.0000438933 0.0000158267 134.312555 0.0000158267 300.00007 C 0.0000158267 465.687584 134.312527 600.000096 300.000042 600.000096 C 465.687556 600.000096 600.000068 465.687584 600.000068 300.00007 C 600.000068 134.312555 465.687556 0.0000438933 300.000042 0.0000438933 Z M 300.000042 0.0000438933 " stroke="#ffffff" stroke-width="200" stroke-opacity="1" stroke-miterlimit="4"/></g></g></svg>